<svg aria-hidden="true" style="position: absolute; width: 0; height: 0; overflow: hidden;" version="1.1" xmlns="http://www.w3.org/2000/svg" xmlns:xlink="http://www.w3.org/1999/xlink">
<defs>
<symbol id="clock-o-1" viewBox="0 0 27 32">
<path d="M16 9.714v8c0 0.321-0.25 0.571-0.571 0.571h-5.714c-0.321 0-0.571-0.25-0.571-0.571v-1.143c0-0.321 0.25-0.571 0.571-0.571h4v-6.286c0-0.321 0.25-0.571 0.571-0.571h1.143c0.321 0 0.571 0.25 0.571 0.571zM23.429 16c0-5.357-4.357-9.714-9.714-9.714s-9.714 4.357-9.714 9.714 4.357 9.714 9.714 9.714 9.714-4.357 9.714-9.714zM27.429 16c0 7.571-6.143 13.714-13.714 13.714s-13.714-6.143-13.714-13.714 6.143-13.714 13.714-13.714 13.714 6.143 13.714 13.714z"></path>
</symbol>
<symbol id="caret-up-1" viewBox="0 0 18 32">
<path d="M18.286 21.714c0 0.625-0.518 1.143-1.143 1.143h-16c-0.625 0-1.143-0.518-1.143-1.143 0-0.304 0.125-0.589 0.339-0.804l8-8c0.214-0.214 0.5-0.339 0.804-0.339s0.589 0.125 0.804 0.339l8 8c0.214 0.214 0.339 0.5 0.339 0.804z"></path>
</symbol>
<symbol id="wifi-protected-25f22b278cd7bf-1" viewBox="0 0 32 32">
<path stroke-linejoin="round" stroke-linecap="round" stroke-miterlimit="10" stroke-width="1" d="M16 24c-1.657 0-3-1.343-3-3s1.343-3 3-3c0.885 0 1.681 0.383 2.23 0.993l0.002 0.003M23.778 13.222c-1.985-1.99-4.73-3.222-7.763-3.222-0.005 0-0.010 0-0.016 0h0.001c-0.004 0-0.010 0-0.015 0-3.033 0-5.778 1.232-7.763 3.222l-0 0M29.612 7.638c-3.484-3.483-8.296-5.638-13.612-5.638s-10.128 2.155-13.612 5.638"></path>
<path stroke-linejoin="round" stroke-linecap="round" stroke-miterlimit="4" stroke-width="1" d="M26 27.5c0 0.552-0.448 1-1 1s-1-0.448-1-1c0-0.552 0.448-1 1-1s1 0.448 1 1z"></path>
<path stroke-linejoin="round" stroke-linecap="round" stroke-miterlimit="10" stroke-width="1" d="M20 24h10v7h-10zM22 24v-4c0-1.657 1.343-3 3-3v0 0c1.657 0 3 1.343 3 3v0 4"></path>
</symbol>
<symbol id="pc-monitor-25f22b2e5c625c-1" viewBox="0 0 32 32">
<path stroke-linejoin="round" stroke-linecap="round" stroke-miterlimit="10" stroke-width="1" d="M16 29v-2.5M9 29h14"></path>
<path stroke-linejoin="round" stroke-linecap="round" stroke-miterlimit="10" stroke-width="1" d="M1 3h30v21h-30z"></path>
<path stroke-linejoin="round" stroke-linecap="round" stroke-miterlimit="10" stroke-width="1" d="M4 6h24v15h-24z"></path>
</symbol>
<symbol id="microsoft-25f22b2b6995ed-1" viewBox="0 0 32 32">
<path stroke-linejoin="round" stroke-linecap="round" stroke-miterlimit="10" stroke-width="1" d="M2 2h12.5v12.5h-12.5z"></path>
<path stroke-linejoin="round" stroke-linecap="round" stroke-miterlimit="10" stroke-width="1" d="M17.5 2h12.5v12.5h-12.5zM2 17.5h12.5v12.5h-12.5z"></path>
<path stroke-linejoin="round" stroke-linecap="round" stroke-miterlimit="10" stroke-width="1" d="M17.5 17.5h12.5v12.5h-12.5z"></path>
</symbol>
<symbol id="l-settings-25f22b2c1e7e32-1" viewBox="0 0 32 32">
<path stroke-linejoin="round" stroke-linecap="round" stroke-miterlimit="10" stroke-width="1" d="M4 18.5v-14c0-1.105 0.895-2 2-2v0h20c1.105 0 2 0.895 2 2v0 9.5M15 5.5h2M15 21.5h-14c0 2.209 1.791 4 4 4v0h10"></path>
<path stroke-linejoin="round" stroke-linecap="round" stroke-miterlimit="10" stroke-width="1" d="M26 23.5c0 0.828-0.672 1.5-1.5 1.5s-1.5-0.672-1.5-1.5c0-0.828 0.672-1.5 1.5-1.5s1.5 0.672 1.5 1.5z"></path>
<path stroke-linejoin="round" stroke-linecap="round" stroke-miterlimit="10" stroke-width="1" d="M29 23.5c0-0.22-0.021-0.435-0.052-0.646l1.681-1.738-1-1.732-2.343 0.587c-0.323-0.257-0.694-0.476-1.093-0.638l-0.030-0.011-0.663-2.322h-2l-0.663 2.322c-0.429 0.173-0.8 0.392-1.132 0.656l0.009-0.007-2.343-0.587-1 1.732 1.681 1.738c-0.031 0.193-0.050 0.417-0.052 0.645v0.002c0 0.22 0.021 0.435 0.052 0.646l-1.681 1.738 1 1.732 2.343-0.587c0.323 0.257 0.694 0.476 1.093 0.638l0.030 0.011 0.663 2.322h2l0.663-2.322c0.429-0.173 0.8-0.392 1.132-0.656l-0.009 0.007 2.343 0.587 1-1.732-1.681-1.738c0.031-0.212 0.052-0.427 0.052-0.646z"></path>
</symbol>
<symbol id="email-black-18dp-1-1" viewBox="0 0 32 32">
<path d="M26.667 5.333h-21.333c-1.467 0-2.652 1.2-2.652 2.667l-0.014 16c0 1.467 1.2 2.667 2.667 2.667h21.333c1.467 0 2.667-1.2 2.667-2.667v-16c0-1.467-1.2-2.667-2.667-2.667zM26.133 11.001l-9.426 5.892c-0.201 0.126-0.446 0.2-0.708 0.2s-0.506-0.075-0.713-0.204l0.006 0.003-9.426-5.892c-0.336-0.201-0.557-0.562-0.557-0.975 0-0.625 0.507-1.132 1.132-1.132 0.233 0 0.449 0.070 0.629 0.19l-0.004-0.003 8.933 5.586 8.933-5.588c0.176-0.118 0.392-0.188 0.624-0.188 0.625 0 1.132 0.507 1.132 1.132 0 0.413-0.221 0.775-0.552 0.972l-0.005 0.003z"></path>
</symbol>
<symbol id="phone-black-18dp-1-1" viewBox="0 0 32 32">
<path d="M24.882 19.774l-3.268-0.373c-0.090-0.011-0.194-0.018-0.3-0.018-0.707 0-1.347 0.287-1.81 0.75l-2.368 2.368c-3.669-1.894-6.585-4.81-8.427-8.372l-0.051-0.108 2.382-2.377c0.463-0.463 0.75-1.103 0.75-1.81 0-0.106-0.006-0.21-0.019-0.312l0.001 0.012-0.373-3.243c-0.155-1.287-1.24-2.276-2.557-2.276-0.001 0-0.002 0-0.003 0h-2.226c-1.454 0-2.663 1.209-2.574 2.661 0.683 10.987 9.47 19.762 20.444 20.444 1.452 0.089 2.663-1.12 2.663-2.574v-2.226c0-0.004 0-0.008 0-0.012 0-1.308-0.985-2.386-2.253-2.532l-0.012-0.001z"></path>
</symbol>
<symbol id="wrench" viewBox="0 0 32 32">
<path d="M31.342 25.559l-14.392-12.336c0.67-1.259 1.051-2.696 1.051-4.222 0-4.971-4.029-9-9-9-0.909 0-1.787 0.135-2.614 0.386l5.2 5.2c0.778 0.778 0.778 2.051 0 2.828l-3.172 3.172c-0.778 0.778-2.051 0.778-2.828 0l-5.2-5.2c-0.251 0.827-0.386 1.705-0.386 2.614 0 4.971 4.029 9 9 9 1.526 0 2.963-0.38 4.222-1.051l12.336 14.392c0.716 0.835 1.938 0.882 2.716 0.104l3.172-3.172c0.778-0.778 0.731-2-0.104-2.716z"></path>
</symbol>
</defs>
</svg>
